<?xml version="1.0" encoding="UTF-8" standalone="no" ?>
<!DOCTYPE svg PUBLIC "-//W3C//DTD SVG 1.1//EN" "http://www.w3.org/Graphics/SVG/1.1/DTD/svg11.dtd">
<svg xmlns="http://www.w3.org/2000/svg" xmlns:xlink="http://www.w3.org/1999/xlink" version="1.1" width="1080" height="1080" viewBox="0 0 1080 1080" xml:space="preserve">
<desc>Created with Fabric.js 5.2.4</desc>
<defs>
</defs>
<g transform="matrix(1 0 0 1 540 540)" id="5f2850c8-440c-4fad-98a8-e4d30fea2208"  >
</g>
<g transform="matrix(1 0 0 1 540 540)" id="26d4b2e6-8a81-4b68-8953-baa8c8fb02f7"  >
<rect style="stroke: none; stroke-width: 1; stroke-dasharray: none; stroke-linecap: butt; stroke-dashoffset: 0; stroke-linejoin: miter; stroke-miterlimit: 4; fill: rgb(255,255,255); fill-rule: nonzero; opacity: 1; visibility: hidden;" vector-effect="non-scaling-stroke"  x="-540" y="-540" rx="0" ry="0" width="1080" height="1080" />
</g>
<g transform="matrix(2.43 0 0 2.43 540 540)"  >
<path style="stroke: rgb(0,0,0); stroke-width: 0; stroke-dasharray: none; stroke-linecap: butt; stroke-dashoffset: 0; stroke-linejoin: miter; stroke-miterlimit: 4; fill: rgb(233,77,38); fill-rule: nonzero; opacity: 1;" vector-effect="non-scaling-stroke"  transform=" translate(-511.53, -513.1)" d="M 460 549 L 564 549 L 564 623 L 564 643 C 564 646.588 563.513 650.689 565.179 653.999 C 571.236 666.034 590.889 663 602 663 C 605.965 663 610.067 663.286 614 662.699 C 618.947 661.96 623.182 659.635 625.427 654.996 C 628.927 647.764 627 636.842 627 629 C 627 610.982 628 593.055 628 575 L 628 444 C 628 422.325 630.014 399.563 627.895 378 C 627.352 372.472 624.018 367.002 618.996 364.457 C 614.296 362.074 608.103 363 603 363 C 590.633 363 573.503 359.477 566.009 372.001 C 561.308 379.858 564 394.109 564 403 L 564 479 L 460 479 L 460 404 C 460 394.684 462.674 380.337 457.91 372.001 C 450.823 359.599 434.002 363 422 363 C 416.788 363 410.846 362.256 406 364.573 C 400.805 367.055 396.682 372.224 396.105 378 C 393.953 399.548 396 422.336 396 444 L 396 575 L 396 629 C 396 636.606 394.201 646.97 397.573 653.999 C 399.409 657.828 402.922 661.068 407 662.347 C 411.035 663.613 415.825 663 420 663 C 431.08 663 451.337 667.029 457.543 654.985 C 461.618 647.077 458.496 634.667 459.09 626 C 460.839 600.453 460 574.638 460 549 M 319 478 C 310.432 478 299.825 476.407 293.228 483.214 C 287.459 489.167 290.172 501.386 289.985 509 C 289.656 522.424 283.765 545.255 302 549.471 C 307.397 550.718 313.49 550 319 550 C 319 567.725 318 585.295 318 603 C 318 610.597 317.186 619.692 322.394 625.945 C 325.723 629.942 330.211 631.002 335 632.282 C 348.893 635.995 381.76 637.726 382.957 617 C 383.893 600.781 383 584.248 383 568 L 383 470 L 383 428 C 383 420.986 384.237 412.622 381.517 406.001 C 379.731 401.652 376.421 398.569 372 396.97 C 367.638 395.392 362.561 396 358 396 C 346.909 396 328.511 392.19 321.483 403.093 C 317.1 409.893 318 419.287 318 427 C 318 444.026 319 460.944 319 478 M 705 549 C 713.03 549 723.578 550.38 729.606 543.786 C 733.617 539.398 733 533.504 733 528 C 733 522.361 732.704 516.628 733.089 511 C 733.749 501.369 736.854 488.723 728.892 481.214 C 722.59 475.27 712.964 477 705 477 C 705 460.038 704 443.028 704 426 C 704 419.276 705.654 409.987 701.991 404.015 C 695.167 392.891 678.01 396 667 396 C 662.459 396 657.371 395.395 653 396.853 C 648.556 398.336 644.022 401.653 642.089 406.015 C 639.821 411.134 641.348 417.559 640.83 423 C 639.349 438.567 640 454.351 640 470 L 640 567 C 640 583.269 639.223 599.753 640.04 616 C 641.025 635.584 664.232 633.001 678 633 C 685.745 633 694.967 632.391 700.291 625.895 C 705.898 619.052 705 609.274 705 601 L 705 549 z" stroke-linecap="round" />
</g>
</svg>